<svg xmlns="http://www.w3.org/2000/svg" width="120" height="101" viewBox="0 0 120 101"><g><g><path fill="#fff" d="M120 10.278v54.907c0 5.54-4.507 10.046-10.047 10.046H75.97l3.412 10.24c3.228.837 5.62 3.773 5.62 7.26v2.5h7.5a2.5 2.5 0 0 1 0 5.001H27.5a2.5 2.5 0 0 1 0-5.001H35v-2.5c0-3.487 2.39-6.423 5.619-7.26l3.412-10.24H10.047C4.507 75.231 0 70.724 0 65.185V10.278C0 4.74 4.507.233 10.047.233h99.906C115.493.233 120 4.739 120 10.278zM77.5 90.231h-35a2.502 2.502 0 0 0-2.5 2.5v2.5h40v-2.5c0-1.379-1.121-2.5-2.5-2.5zm-3.469-5l-3.333-10H49.302l-3.333 10zm40.97-20.046V15.232H20.43a2.5 2.5 0 0 1 0-5h94.566a5.052 5.052 0 0 0-5.044-5H10.047A5.053 5.053 0 0 0 5 10.278v47.454H99.97a2.5 2.5 0 1 1 0 5H5v2.453a5.053 5.053 0 0 0 5.047 5.047h99.906A5.053 5.053 0 0 0 115 65.185zM42.94 28.678a2.499 2.499 0 0 1 2.462-2.929v-.001h12.91a2.5 2.5 0 0 1 0 5h-9.927l1.38 7.738 14.771.983 1.305-10.29.757-5.973a2.49 2.49 0 0 1 2.48-2.178l5.529.027a2.49 2.49 0 0 1-.02 4.98l-3.326-.017-.48 3.785-1.6 12.624a2.489 2.489 0 0 1-2.636 2.171v.006l-19.063-1.269a2.496 2.496 0 0 1-2.292-2.06h-.003zm10.977 20.76a2.505 2.505 0 0 1-2.5 2.498 2.505 2.505 0 0 1-2.5-2.499 2.506 2.506 0 0 1 2.5-2.501c1.377 0 2.5 1.124 2.5 2.501zm12.744 0a2.505 2.505 0 0 1-2.5 2.498 2.505 2.505 0 0 1-2.5-2.499 2.506 2.506 0 0 1 2.5-2.501c1.377 0 2.5 1.124 2.5 2.501zM15.265 12.731a2.5 2.5 0 0 1-2.5 2.501h-1.123a2.501 2.501 0 0 1 0-5.001h1.123a2.5 2.5 0 0 1 2.5 2.5zm89.423 47.5a2.5 2.5 0 0 1 2.5-2.5h1.057a2.5 2.5 0 1 1 0 5h-1.057a2.5 2.5 0 0 1-2.5-2.5z"/></g></g></svg>