<svg xmlns="http://www.w3.org/2000/svg" width="16" height="12" viewBox="0 0 16 12"><g><g><path fill="#555" d="M16 11.666a.333.333 0 1 1-.667 0c0-1.416-3.2-2.93-8-2.997v2.33c0 .552-.448 1-1 1a.988.988 0 0 1-.673-.267l-.43-.398c-1.416-1.31-3.787-3.503-5-4.72A.862.862 0 0 1 0 6c0-.248.082-.466.23-.615 1.213-1.217 3.584-3.41 5-4.72l.43-.398A.988.988 0 0 1 6.333 0c.552 0 1 .448 1 1v2.338C12.143 3.501 16 7.175 16 11.666zm-.844-1.576C14.364 6.616 11.008 4 7 4a.333.333 0 0 1-.334-.334V1a.334.334 0 0 0-.333-.334.323.323 0 0 0-.22.09l-.43.399C4.27 2.46 1.906 4.648.703 5.855c-.018.018-.037.07-.037.145 0 .074.019.126.037.144 1.203 1.207 3.567 3.394 4.98 4.7l.43.399c.044.041.119.09.22.09.184 0 .334-.15.334-.333V8.333C6.667 8.149 6.816 8 7 8c3.654 0 6.734.844 8.156 2.09z"/></g></g></svg>