<svg xmlns="http://www.w3.org/2000/svg" width="16" height="16" viewBox="0 0 16 16"><g><g><path fill="#7347c1" d="M7.666.165a7.5 7.5 0 1 1-.001 15.002A7.5 7.5 0 0 1 7.666.165zm-3.02 13.73L1.344 4.849a6.922 6.922 0 0 0 3.302 9.046zm5.319.3a.68.68 0 0 1-.05-.094L7.789 8.27l-2.077 6.035a6.927 6.927 0 0 0 4.254-.111zm1.182-.547a6.916 6.916 0 0 0 3.44-5.982 6.892 6.892 0 0 0-.847-3.322c.03.222.048.458.048.712 0 .703-.133 1.492-.527 2.48zm-.058-9.864c0-.636.481-1.228 1.162-1.228.03 0 .06.003.09.006A6.89 6.89 0 0 0 7.665.744a6.914 6.914 0 0 0-5.783 3.12c.163.005.315.008.445.008.725 0 1.845-.088 1.845-.088.372-.021.418.526.045.571 0 0-.376.042-.793.066l2.521 7.497 1.515-4.542L6.383 4.42c-.373-.024-.727-.066-.727-.066-.372-.022-.329-.592.045-.571 0 0 1.142.088 1.822.088.724 0 1.845-.088 1.845-.088.372-.021.417.526.044.571 0 0-.374.042-.792.066l2.502 7.44.69-2.307c.35-.9.527-1.645.527-2.238 0-.855-.308-1.448-.57-1.909-.351-.57-.68-1.052-.68-1.623z"/></g></g></svg>